<?xml version="1.0" encoding="utf-8"?>
<!-- Generator: Adobe Illustrator 27.5.0, SVG Export Plug-In . SVG Version: 6.00 Build 0)  -->
<svg version="1.1" id="Layer_1" xmlns="http://www.w3.org/2000/svg" xmlns:xlink="http://www.w3.org/1999/xlink" x="0px" y="0px"
	 viewBox="0 0 251.8 80" style="enable-background:new 0 0 251.8 80;" xml:space="preserve">
<style type="text/css">
	.st0{fill:#00A0E8;}
	.st1{opacity:0.5;fill:#FFFFFF;}
	.st2{opacity:0.5;}
	.st3{fill:#FFFFFF;}
</style>
<g>
	<g>
		<path class="st0" d="M220.4,14.1c0-0.3,0.1-0.6,0.4-0.6h12.2c0.4,0,0.6,0.3,0.7,0.6l2,13.3c0.1,0.4,0.2,0.7,0.4,0.7
			c0.1,0,0.3-0.4,0.4-0.7l2.5-13.5c0.1-0.2,0.2-0.4,0.5-0.4h11.7c0.4,0,0.6,0.3,0.5,0.4l-12.5,65.5c-0.1,0.4-0.4,0.7-0.8,0.7h-11.4
			c-0.4,0-0.7-0.4-0.6-0.8l4.1-22.4c0.1-0.4,0.1-0.9,0-1.3L220.4,14.1z"/>
		<path class="st1" d="M250.2,21.8l0.2-1h-3.8v-7.3h-1v7.3h-7.8l-0.2,1h8v8.8h-8.8v-4.4l-0.2,1.1c-0.1,0.4-0.3,0.7-0.4,0.7
			c-0.2,0-0.3-0.4-0.4-0.7l-0.1-1v4.3h-8.8v-8.8h8.2l-0.2-1h-8v-7.3h-1v7.3h-3.7l0.3,1h3.4v8.8h-1.3l0.3,1h1v4.1l1,4.3v-8.4h8.8v8.8
			h-8.7l0.3,1h8.5v8.8h-6.3l0.3,1h6.1v8.8h-5.7l-0.2,1h5.9v8.8h-7.5l-0.2,1h7.7V80h1v-8.7h4.1l0.2-1h-4.3v-8.8h6l0.2-1h-6.2v-8.8
			h7.9l0.2-1h-8.1v-8.8h8.8v4.8l1.1-5.8h-0.1v-8.8h1.8l0.2-1h-2v-8.8H250.2z M245.5,40.5h-8.8v-8.8h8.8V40.5z"/>
	</g>
	<g>
		<path class="st0" d="M191,28.9c0-7.8,5.3-15.3,14.7-15.3c9.4,0,15.2,8.2,15.2,16.2c0,4.3,0,4.8-1.1,4.9l-11.6,0.6
			c-0.6,0.1-1.1-0.5-1.1-1.1v-6.6c0-1.1-0.7-1.8-1.4-1.8c-0.6,0-1.4,0.7-1.4,1.8v23.6c0,1.1,0.8,1.8,1.5,1.8c0.6,0,1.3-0.7,1.3-1.8
			v-5.7c0-0.5,0.4-0.9,1-0.9l11.8,0.6c0.6,0.1,1,0.5,1,1.1c0,6,0,20.4-15.5,20.4c-8.5,0-14.4-6.7-14.4-16.9V28.9z"/>
		<path class="st1" d="M220.7,51.7c0-0.4,0.1-0.7,0.1-1h-4.7v-5.6l-1-0.1v5.7h-7.9v0.5c0,0.2,0,0.4-0.1,0.5h8v8.8h-8.8v-7.7
			c-0.1,0.1-0.3,0.1-0.4,0.1c-0.2,0-0.4-0.1-0.6-0.2v7.8h-8.8v-8.8h8c0-0.2-0.1-0.3-0.1-0.5v-0.5h-8v-8.8h8v-1h-8V32h8v-1h-8v-8.8
			h8.8V26c0.2-0.1,0.4-0.2,0.6-0.2c0.2,0,0.3,0,0.5,0.1v-3.9h8.8v8.8h-7.9v1h7.9v2.9l1-0.1V32h4.8c0-0.3,0-0.7,0-1h-4.8v-8.8h3
			c-0.2-0.4-0.4-0.7-0.6-1h-2.4v-3.2c-0.3-0.3-0.7-0.7-1-1V21h-8.8v-7.5c-0.2,0-0.3,0-0.5,0c-0.2,0-0.4,0-0.6,0V21h-8.8v-4.2
			c-0.4,0.3-0.7,0.6-1,1V21h-2.4c-0.2,0.3-0.4,0.7-0.5,1h2.9v8.8H191v1h4.3v8.8H191v1h4.3v8.8H191c0,0.4,0,0.7,0.1,1h4.2v8.8h-1.5
			c0.2,0.4,0.5,0.7,0.7,1h0.7v0.8c0.3,0.4,0.7,0.7,1,1v-1.9h8.8v5.1c0.1,0,0.1,0,0.2,0c0.3,0,0.6,0,0.9,0v-5.1h8.8v2.3
			c0.4-0.3,0.7-0.6,1-0.9v-1.4h1.2c0.3-0.3,0.5-0.7,0.7-1h-1.9v-8.8H220.7z"/>
	</g>
	<g>
		<path class="st0" d="M158.1,66.7c-0.4,0-0.7-0.4-0.7-0.9V14.1c0-0.4,0.3-0.6,0.6-0.6h11.1c0.6,0,1.3,3.7,1.7,3.7
			c0.1,0,0.3-0.1,0.6-0.6c1.6-2,3.2-3.3,6.9-3.3c4.3,0,8.7,3.4,8.7,9.4v43.6c0,0.3-0.2,0.4-0.4,0.4h-12.2c-0.4,0-0.6-0.3-0.6-0.6
			V29.8c0-1.3-0.7-1.8-1.4-1.8c-0.7,0-1.4,0.4-1.4,1.8v36.4c0,0.4-0.2,0.5-0.6,0.5H158.1z"/>
		<path class="st1" d="M186.2,18.7c-0.2-0.4-0.3-0.7-0.5-1h-3v-3.1c-0.3-0.2-0.7-0.4-1-0.5v3.6h-8.8v-2.6c-0.4,0.3-0.7,0.7-1,1.1
			v1.5h-8.8v-4.1h-1v4.1h-4.5v1h4.5v8.8h-4.5v1h4.5v8.8h-4.5v1h4.5v8.8h-4.5v1h4.5v8.8h-4.5v1h4.5v8.5h1v-8.5h7.9v-1h-7.9v-8.8h7.9
			v-1h-7.9v-8.8h7.9v-1h-7.9v-8.8h8.3c0.3-0.4,0.7-0.5,1.1-0.5c0.4,0,0.8,0.1,1.1,0.5h8.3v8.8h-7.9v1h7.9v8.8h-7.9v1h7.9v8.8h-7.9v1
			h7.9v8.5h1v-8.5h4.3v-1h-4.3v-8.8h4.3v-1h-4.3v-8.8h4.3v-1h-4.3v-8.8h4.3v-1h-4.3v-8.8H186.2z M171.8,27.5h-8.8v-8.8h8.8V27.5z
			 M181.6,27.5h-8.8v-8.8h8.8V27.5z"/>
	</g>
	<g>
		<g>
			<g>
				<path class="st0" d="M124,14.3c0-0.5,0.3-0.9,0.7-0.9h11.2c0.4,0,0.7,0.3,0.7,0.7V48c0,1.3,0.8,1.8,1.4,1.8
					c0.7,0,1.4-0.4,1.4-1.8V14.1c0-0.4,0.3-0.7,0.6-0.7h11.5c0.4,0,0.8,0.3,0.8,0.6v52c0,0.4-0.3,0.6-0.7,0.6h-10.5
					c-0.5,0-1.1-3.1-1.6-3.1c-0.2,0-0.4,0.2-1,0.7c-1.6,1.5-3.1,2.4-6.3,2.4c-3.6,0-8.3-3-8.3-9.2V14.3z"/>
			</g>
		</g>
		<path class="st1" d="M152.4,28.5v-1h-4v-8.8h4v-1h-4v-4.1h-1v4.1h-7.9v1h7.9v8.8h-7.9v1h7.9v8.8h-7.9v1h7.9v8.8h-7.9V48
			c0,0.1,0,0.2,0,0.3h7.9v8.8h-8.8v-7.4c-0.2,0.1-0.3,0.1-0.5,0.1c-0.2,0-0.4,0-0.6-0.1v7.4h-8.8v-8.8h8c0-0.1,0-0.2,0-0.3v-0.8h-8
			v-8.8h8v-1h-8v-8.8h8v-1h-8v-8.8h8v-1h-8v-4.1h-1v4.1H124v1h3.6v8.8H124v1h3.6v8.8H124v1h3.6v8.8H124v1h3.6v8.8H124v0.3
			c0,0.3,0,0.5,0,0.7h3.5V65c0.3,0.3,0.7,0.5,1,0.7v-7.5h8.8v7.1c0.4-0.3,0.7-0.5,1-0.9v-6.2h8.8v8.5h1v-8.5h4v-1h-4v-8.8h4v-1h-4
			v-8.8h4v-1h-4v-8.8H152.4z"/>
	</g>
	<g>
		<g>
			<path class="st0" d="M92.9,25.9c0-7.4,5.4-12.4,13.1-12.4c2.6,0,4.7,0.4,6.2,1.3c0.5-1,2.9-3.9,4.9-3.9c2.2,0,4.6,4.6,4.6,5.1
				c0,0.9-4.1,2.3-4.6,2.8c1.1,1.4,1.9,4.3,1.9,7.4v13.2c0,7.4-5.3,12.4-13,12.4c-1.1,0-2.7-0.2-3.6-0.4c-0.4,0.6-0.5,1.1-0.5,1.4
				c0,1.1,1.2,1.7,4.8,2.2c9.5,1.3,13.7,4.8,13.7,13.1c0,7.8-5.9,11.8-13.7,11.8c-9.9,0-14.4-5.1-14.4-10.2c0-3,1.2-5.2,2.8-6.5
				c-1.2-1.1-2.1-3.1-2.1-6c0-3.2,2.2-6.9,4.3-8.5c-2.4-2-4.4-5.9-4.4-9.4V25.9z M101.6,65.8c-0.4,0.3-0.5,0.8-0.5,1.2
				c0,2.4,4.1,2.5,4.8,2.5c1.5,0,3.5-0.4,3.5-1.9c0-0.5-0.4-1-1.3-1C106,66.6,103.3,66.3,101.6,65.8z M104.5,37.8
				c0,1.2,0.6,1.8,1.5,1.8c0.9,0,1.3-0.6,1.3-1.8V28c0-1.2-0.5-1.8-1.3-1.8c-0.9,0-1.5,0.5-1.5,1.7V37.8z"/>
		</g>
		<g class="st2">
			<path class="st3" d="M92.9,37.4v1h2.6v8.4c0.4,0.6,0.9,1.1,1.3,1.5h8.6v3.5c0.2,0,0.4,0,0.6,0c0.1,0,0.3,0,0.4,0v-3.6h8.8v0.2
				c0.4-0.4,0.8-0.8,1.1-1.2h-0.1v-8.8h2.6v-1h-2.6v-8.8h2.6v-1h-2.6v-8.8h1.1c0.5-0.3,1.3-0.6,2.1-1h-3.2V11
				c-0.3,0.1-0.7,0.3-1,0.5v6.1h-8.8v-4.1c-0.1,0-0.3,0-0.4,0c-0.2,0-0.4,0-0.6,0v4.1h-8.8v-0.7c-0.6,0.5-1.1,1.1-1.5,1.8h0.5v8.8
				h-2.6v1h2.6v8.8H92.9z M96.6,38.4h8c-0.1-0.2-0.1-0.4-0.1-0.7v-0.4h-7.9v-8.8h7.9v-0.6c0-0.2,0-0.3,0-0.4h-8v-8.8h8.8v7.7
				c0.2-0.1,0.4-0.1,0.6-0.1c0.2,0,0.3,0,0.4,0.1v-7.7h8.8v8.8h-8c0,0.2,0,0.3,0,0.5v0.5h7.9v8.8h-7.9v0.4c0,0.2,0,0.5-0.1,0.7h8
				v8.8h-8.8v-7.8c-0.1,0-0.3,0.1-0.4,0.1c-0.2,0-0.4,0-0.6-0.1v7.8h-8.8V38.4z"/>
			<path class="st3" d="M116.4,67.1v-8.6c-0.6-0.5-1.3-0.9-2.1-1.3h-7.8V55c-0.4-0.1-0.7-0.1-1-0.2v2.3h-8.8v-7.7
				c-0.4,0.3-0.7,0.8-1,1.2v6.5H93c0,0,0,0.1,0,0.1c0,0.3,0,0.6,0,0.9h2.5v8.8h-2.9c-0.1,0.3-0.2,0.7-0.2,1h3.1v8.5
				c0.6,0.5,1.2,1,2,1.4h7.9v2c0.3,0,0.7,0,1,0v-2h8.5c0.5-0.3,1-0.7,1.5-1h-0.1v-8.8h4c0-0.4,0-0.7,0-1H116.4z M115.3,67.1h-6.2
				c0.2,0.2,0.3,0.4,0.3,0.6c0,0.2,0,0.3-0.1,0.4h6v8.8h-8.8v-7.4c-0.2,0-0.4,0-0.6,0c-0.1,0-0.2,0-0.4,0v7.4h-8.8v-8.8h4.8
				c-0.2-0.3-0.3-0.6-0.3-1c0,0,0,0,0,0h-4.5v-8.8h8.8v8.3c0.4,0,0.7,0.1,1,0.1v-8.4h8.8V67.1z"/>
		</g>
	</g>
	<g>
		<path class="st0" d="M69.3,14.3c0-0.4,0.2-0.7,0.5-0.7h12.5c0.5,0,1.1,2.8,1.6,2.8c0.2,0,0.4-0.2,0.5-0.6c0.9-2.1,2.8-2.2,5.6-2.2
			c0.3,0,0.5,0.3,0.5,0.6V27c0,0.4-0.2,0.6-0.6,0.6c-4.5,0-6.3,2.4-6.3,9.6v28.8c0,0.4-0.4,0.8-0.8,0.8H69.9c-0.4,0-0.6-0.3-0.6-0.7
			V14.3z"/>
		<path class="st1" d="M83.6,58.2h-1.7v-8.8h1.7v-1h-1.7v-8.8h1.7v-1h-1.7v-8.8h3.3c0.3-0.4,0.7-0.8,1.1-1h-4.3v-8.8h8.6v-1h-8.6v-5
			h-1v5H72v-5h-1v5h-1.7v1H71v8.8h-1.7v1H71v8.8h-1.7v1H71v8.8h-1.7v1H71v8.8h-1.7v1H71v7.6h1v-7.6h8.8v7.6h1v-7.6h1.7V58.2z
			 M80.9,58.2H72v-8.8h8.8V58.2z M80.9,48.3H72v-8.8h8.8V48.3z M80.9,38.4H72v-8.8h8.8V38.4z M80.9,28.5H72v-8.8h8.8V28.5z"/>
	</g>
	<g>
		<path class="st0" d="M34.7,35.9c0-8.2,6.1-13.7,15.3-13.7c9.1,0,15.3,5.5,15.3,14.2v16.8C65.2,61.4,59.1,67,50,67
			c-9,0-15.3-5.7-15.3-13.8V35.9z M48.5,50.8c0,1.1,0.4,1.8,1.4,1.8c1,0,1.4-0.7,1.4-1.8V38.1c0-1-0.5-1.8-1.4-1.8
			c-1,0-1.4,0.8-1.4,1.8V50.8z"/>
		<path class="st1" d="M65.2,39.5v-1h-4.9v-8.8h3.4c-0.2-0.4-0.4-0.7-0.6-1h-2.8v-3.1c-0.3-0.3-0.7-0.5-1-0.8v3.9h-8.8v-6.4
			c-0.2,0-0.3,0-0.5,0c-0.2,0-0.4,0-0.6,0v6.4h-8.8v-3.8c-0.4,0.2-0.7,0.5-1,0.8v3.1h-2.8c-0.2,0.3-0.4,0.7-0.6,1h3.4v8.8h-4.8v1
			h4.8v8.8h-4.8v1h4.8v8.8h-3.9c0.1,0.4,0.3,0.7,0.5,1h3.5v4.4c0.3,0.3,0.7,0.5,1,0.8v-5.1h8.8V67c0.2,0,0.4,0,0.6,0
			c0.2,0,0.3,0,0.5,0v-7.7h8.8v5.2c0.4-0.2,0.7-0.5,1-0.8v-4.5h3.6c0.2-0.3,0.3-0.7,0.4-1h-4v-8.8h4.9v-1h-4.9v-8.8H65.2z
			 M59.3,38.4h-7.9v1h7.9v8.8h-7.9v1h7.9v8.8h-8.8v-5.7c-0.1,0-0.3,0.1-0.5,0.1c-0.2,0-0.4,0-0.6-0.1v5.7h-8.8v-8.8h8v-1h-8v-8.8h8
			v-1h-8v-8.8h8.8v6.9c0.2-0.1,0.3-0.1,0.6-0.1c0.2,0,0.3,0,0.5,0.1v-6.9h8.8V38.4z"/>
	</g>
	<g>
		<path class="st0" d="M0,1.2C0,0.6,0.4,0,1.1,0h43.2c0.6,0,1.1,0.4,1.1,1v15.4c0,0.6-0.5,1.2-1.2,1.2H18.5c-0.5,0-1,0.4-1,1v5.3
			c0,0.4,0.3,0.8,0.9,0.8h11.2c0.4,0,1,0.4,1,0.9v16.1c0,0.5-0.4,1-1.1,1H18.4c-0.4,0-0.9,0.6-0.9,1.2v21.6c0,0.8-0.4,1.2-1.2,1.2H1
			c-0.4,0-1-0.5-1-1.2V1.2z"/>
		<path class="st1" d="M45.4,8.4h-2V0h-1v8.4h-8.8V0h-1v8.4h-8.8V0h-1v8.4h-8.8V0h-1v8.4H3.8V0h-1v8.4H0v1h2.8v8.8H0v1h2.8v8.8H0v1
			h2.8v8.8H0v1h2.8V48H0v1h2.8v8.8H0v1h2.8v7.6h1v-7.6h8.8v7.6h1v-7.6h3.8v-1h-3.8V49h3.8v-1h-3.8v-8.8h8.8v3.4h1v-3.4h7v-1h-7v-8.8
			h7v-1h-7v-3.5h-1v3.5h-8.8v-8.8h3.8v-0.8c0-0.1,0-0.2,0-0.2h-3.9V9.5h8.8v8.1h1V9.5h8.8v8.1h1V9.5h8.8v8.1h1V9.5h2V8.4z
			 M12.7,57.9H3.8V49h8.8V57.9z M12.7,48H3.8v-8.8h8.8V48z M12.7,38.1H3.8v-8.8h8.8V38.1z M12.7,28.2H3.8v-8.8h8.8V28.2z M12.7,18.3
			H3.8V9.5h8.8V18.3z M22.6,29.3v8.8h-8.8v-8.8H22.6z"/>
	</g>
</g>
</svg>
